<svg width="24" height="24" viewBox="0 0 24 24" fill="none" xmlns="http://www.w3.org/2000/svg">
<path d="M3 3L21 21" stroke="#2C3E50" stroke-width="1.5" stroke-linecap="round" stroke-linejoin="round"/>
<path d="M10.584 10.5879C9.80248 11.3688 9.80203 12.6354 10.583 13.4169C11.3639 14.1984 12.6305 14.1988 13.412 13.4179" stroke="#2C3E50" stroke-width="1.5" stroke-linecap="round" stroke-linejoin="round"/>
<path d="M9.15672 4.64404C8.75849 4.75796 8.528 5.17315 8.64192 5.57139C8.75585 5.96963 9.17104 6.20012 9.56927 6.08619L9.15672 4.64404ZM12 5.00012L11.9973 5.75012H12V5.00012ZM22 12.0001L22.6511 12.3723C22.7829 12.1417 22.783 11.8586 22.6512 11.628L22 12.0001ZM18.9462 14.9791C18.6651 15.2832 18.6838 15.7577 18.9879 16.0389C19.2921 16.32 19.7666 16.3014 20.0478 15.9972L18.9462 14.9791ZM17.7764 17.9709C18.1198 17.7393 18.2104 17.2732 17.9788 16.9298C17.7472 16.5863 17.281 16.4957 16.9376 16.7273L17.7764 17.9709ZM2 12.0001L1.34887 11.6279C1.21706 11.8585 1.21704 12.1416 1.34883 12.3722L2 12.0001ZM7.05301 7.2798C7.39581 7.04728 7.4852 6.5809 7.25268 6.23811C7.02017 5.89531 6.55378 5.80591 6.21099 6.03843L7.05301 7.2798ZM9.56927 6.08619C10.3588 5.86035 11.1762 5.7472 11.9973 5.75011L12.0027 4.25012C11.0402 4.24671 10.0821 4.37933 9.15672 4.64404L9.56927 6.08619ZM12 5.75012C15.64 5.75012 18.7632 7.84755 21.3488 12.3722L22.6512 11.628C19.9028 6.81869 16.36 4.25012 12 4.25012V5.75012ZM21.3489 11.6279C20.5937 12.9491 19.792 14.064 18.9462 14.9791L20.0478 15.9972C20.984 14.9842 21.8503 13.7732 22.6511 12.3723L21.3489 11.6279ZM16.9376 16.7273C15.4284 17.7452 13.79 18.2501 12 18.2501V19.7501C14.094 19.7501 16.0236 19.153 17.7764 17.9709L16.9376 16.7273ZM12 18.2501C8.36001 18.2501 5.23685 16.1527 2.65117 11.628L1.34883 12.3722C4.09715 17.1815 7.63999 19.7501 12 19.7501V18.2501ZM2.65113 12.3723C3.98114 10.0455 5.45439 8.36415 7.05301 7.2798L6.21099 6.03843C4.37161 7.28609 2.75686 9.1647 1.34887 11.6279L2.65113 12.3723Z" fill="#2C3E50"/>
</svg>
