<svg width="24" height="24" viewBox="0 0 24 24" fill="none" xmlns="http://www.w3.org/2000/svg">
<path d="M20.0277 14.1047C20.322 13.8132 20.3243 13.3384 20.0328 13.0441C19.7414 12.7498 19.2665 12.7475 18.9722 13.0389L20.0277 14.1047ZM12 20.9998L11.4722 21.5327C11.7645 21.8222 12.2354 21.8222 12.5277 21.5327L12 20.9998ZM5.02772 13.0389C4.73342 12.7475 4.25855 12.7498 3.96707 13.0441C3.6756 13.3384 3.67789 13.8132 3.97219 14.1047L5.02772 13.0389ZM3.9769 14.1093C4.27376 14.3982 4.74859 14.3917 5.03747 14.0949C5.32634 13.798 5.31986 13.3232 5.023 13.0343L3.9769 14.1093ZM12 7.00583L11.398 7.45322C11.5391 7.64301 11.7614 7.75517 11.9979 7.75582C12.2343 7.75648 12.4573 7.64557 12.5994 7.45656L12 7.00583ZM18.9744 13.0428C18.6789 13.333 18.6746 13.8079 18.9649 14.1034C19.2551 14.3989 19.73 14.4031 20.0255 14.1129L18.9744 13.0428ZM18.9722 13.0389L11.4722 20.4669L12.5277 21.5327L20.0277 14.1047L18.9722 13.0389ZM12.5277 20.4669L5.02772 13.0389L3.97219 14.1047L11.4722 21.5327L12.5277 20.4669ZM5.023 13.0343C3.87661 11.9188 3.45367 10.254 3.92861 8.72654L2.49626 8.28118C1.85369 10.3477 2.4259 12.6001 3.9769 14.1093L5.023 13.0343ZM3.92861 8.72654C4.40355 7.19909 5.69591 6.06767 7.27275 5.79886L7.02068 4.32019C4.8873 4.68387 3.13882 6.21462 2.49626 8.28118L3.92861 8.72654ZM7.27275 5.79886C8.8496 5.53005 10.4438 6.16939 11.398 7.45322L12.6019 6.55844C11.3109 4.82149 9.15405 3.95651 7.02068 4.32019L7.27275 5.79886ZM12.5994 7.45656C13.5576 6.18223 15.1484 5.55138 16.7195 5.8227L16.9748 4.34458C14.8492 3.9775 12.6969 4.831 11.4005 6.55509L12.5994 7.45656ZM16.7195 5.8227C18.2906 6.09403 19.5778 7.22187 20.053 8.74376L21.4848 8.2966C20.8418 6.23757 19.1004 4.71167 16.9748 4.34458L16.7195 5.8227ZM20.053 8.74376C20.5283 10.2656 20.1119 11.9255 18.9744 13.0428L20.0255 14.1129C21.5644 12.6013 22.1279 10.3556 21.4848 8.2966L20.053 8.74376Z" fill="#000639"/>
</svg>
