<svg width="128" height="26" viewBox="0 0 128 26" fill="none" xmlns="http://www.w3.org/2000/svg">
<path d="M11.0199 9.31636V11.5533H2.38411V17.2379H12.1589V19.4749H0V1.84222H12.1589V4.0792H2.38411V9.31636H11.0199Z" fill="#000639"/>
<path d="M18.702 6.31617V8.00049C19.1258 7.52677 19.6645 7.08815 20.3179 6.68462C20.989 6.26354 21.7748 6.053 22.6755 6.053C23.6291 6.053 24.521 6.28109 25.351 6.73725C26.181 7.17588 26.8168 7.84258 27.2583 8.73738C27.8764 8.00049 28.5475 7.36887 29.2715 6.84252C29.9956 6.31617 30.8433 6.053 31.8146 6.053C32.7152 6.053 33.5541 6.25477 34.3311 6.6583C35.1258 7.04429 35.7616 7.64082 36.2384 8.44788C36.7329 9.23741 36.9801 10.2375 36.9801 11.4481V19.4749H34.8079L34.7815 11.6586C34.7815 10.5182 34.4812 9.64971 33.8808 9.05318C33.298 8.45666 32.4856 8.15839 31.4437 8.15839C30.6843 8.15839 30.0221 8.39525 29.457 8.86896C28.8918 9.34268 28.3532 9.89534 27.8411 10.527V19.4749H25.6689L25.6424 11.6586C25.6424 10.5182 25.3422 9.64971 24.7417 9.05318C24.1589 8.45666 23.3466 8.15839 22.3046 8.15839C21.5806 8.15839 20.9183 8.36893 20.3179 8.79001C19.7351 9.21109 19.1965 9.71989 18.702 10.3164V19.4749H16.5298V6.31617H18.702Z" fill="#000639"/>
<path d="M47.8146 6.053C48.9625 6.053 49.9956 6.33372 50.9139 6.89516C51.8499 7.43905 52.5916 8.21103 53.1391 9.21109C53.7042 10.1936 53.9868 11.3516 53.9868 12.685C53.9868 14.1237 53.7042 15.3869 53.1391 16.4747C52.5916 17.5449 51.8322 18.3783 50.8609 18.9748C49.9073 19.5714 48.8212 19.8696 47.6026 19.8696C46.8433 19.8696 46.0662 19.6679 45.2715 19.2643C44.4945 18.8608 43.8234 18.3432 43.2583 17.7116V25.791H41.0861V6.31617H43.2583V8.55315C43.7174 7.85136 44.3355 7.2636 45.1126 6.78989C45.9073 6.29863 46.8079 6.053 47.8146 6.053ZM47.4702 8.15839C46.6755 8.15839 45.9514 8.36016 45.298 8.76369C44.6623 9.16723 44.1589 9.72866 43.7881 10.448C43.4349 11.1498 43.2583 11.9744 43.2583 12.9218L43.2848 15.4483C43.8499 16.1326 44.4415 16.694 45.0596 17.1326C45.6777 17.5537 46.3929 17.7642 47.2053 17.7642C48.1589 17.7642 48.9713 17.5186 49.6424 17.0274C50.3135 16.5361 50.8256 15.9045 51.1788 15.1325C51.5497 14.343 51.7351 13.5271 51.7351 12.685C51.7351 11.8253 51.5585 11.0621 51.2053 10.3954C50.8521 9.71112 50.3576 9.16723 49.7219 8.76369C49.0861 8.36016 48.3355 8.15839 47.4702 8.15839Z" fill="#000639"/>
<path d="M63.5497 6.053C64.8918 6.053 66.0839 6.36881 67.1258 7.00043C68.1678 7.63204 68.9801 8.4742 69.5629 9.5269C70.1634 10.5796 70.4636 11.7288 70.4636 12.9745C70.4636 14.2202 70.1634 15.3694 69.5629 16.4221C68.9801 17.4572 68.1678 18.2906 67.1258 18.9222C66.0839 19.5538 64.8918 19.8696 63.5497 19.8696C62.2075 19.8696 61.0155 19.5538 59.9735 18.9222C58.9316 18.2906 58.1104 17.4572 57.5099 16.4221C56.9272 15.3694 56.6358 14.2202 56.6358 12.9745C56.6358 11.7288 56.9272 10.5796 57.5099 9.5269C58.1104 8.4742 58.9316 7.63204 59.9735 7.00043C61.0155 6.36881 62.2075 6.053 63.5497 6.053ZM63.5497 8.15839C62.6137 8.15839 61.7925 8.38648 61.0861 8.84264C60.3797 9.28127 59.8322 9.86902 59.4437 10.6059C59.0728 11.3253 58.8874 12.1148 58.8874 12.9745C58.8874 13.8166 59.0728 14.6062 59.4437 15.343C59.8322 16.0624 60.3797 16.6501 61.0861 17.1063C61.7925 17.5449 62.6137 17.7642 63.5497 17.7642C64.5033 17.7642 65.3245 17.5449 66.0132 17.1063C66.7196 16.6501 67.2583 16.0624 67.6291 15.343C68.0177 14.6062 68.2119 13.8166 68.2119 12.9745C68.2119 12.1148 68.0177 11.3253 67.6291 10.6059C67.2583 9.86902 66.7196 9.28127 66.0132 8.84264C65.3245 8.38648 64.5033 8.15839 63.5497 8.15839Z" fill="#000639"/>
<path d="M76.2119 6.31617V8.94791C76.7241 8.07067 77.3422 7.36887 78.0662 6.84252C78.7903 6.31617 79.532 6.053 80.2914 6.053C80.8035 6.053 81.2627 6.14073 81.6689 6.31617V8.81633C81.1038 8.48297 80.5386 8.3163 79.9735 8.3163C79.0728 8.3163 78.34 8.63211 77.7748 9.26372C77.2274 9.89534 76.7064 10.6498 76.2119 11.527V19.4749H74.0397V6.31617H76.2119Z" fill="#000639"/>
<path d="M86.5695 0C87.0817 0 87.5055 0.184222 87.8411 0.552665C88.1943 0.903564 88.3709 1.31587 88.3709 1.78958C88.3709 2.24575 88.1943 2.65806 87.8411 3.0265C87.5055 3.39494 87.0817 3.57917 86.5695 3.57917C86.0574 3.57917 85.6247 3.39494 85.2715 3.0265C84.936 2.65806 84.7682 2.24575 84.7682 1.78958C84.7682 1.31587 84.936 0.903564 85.2715 0.552665C85.6247 0.184222 86.0574 0 86.5695 0ZM87.9205 6.31617V19.4749H85.7483V8.34261H83.6556V6.31617H87.9205Z" fill="#000639"/>
<path d="M103.444 6.31617V14.1061C103.444 15.2641 103.196 16.2642 102.702 17.1063C102.208 17.9485 101.536 18.5976 100.689 19.0538C99.8411 19.51 98.8874 19.738 97.8278 19.738C96.7682 19.738 95.8146 19.51 94.9669 19.0538C94.1192 18.5976 93.4481 17.9485 92.9536 17.1063C92.4592 16.2642 92.2119 15.2641 92.2119 14.1061V6.31617H94.4636V14.1061C94.4636 15.2465 94.7991 16.1238 95.4702 16.7379C96.1589 17.3344 96.9448 17.6327 97.8278 17.6327C98.7108 17.6327 99.4879 17.3344 100.159 16.7379C100.848 16.1238 101.192 15.2465 101.192 14.1061V6.31617H103.444Z" fill="#000639"/>
<path d="M109.722 6.31617V8.00049C110.146 7.52677 110.684 7.08815 111.338 6.68462C112.009 6.26354 112.795 6.053 113.695 6.053C114.649 6.053 115.541 6.28109 116.371 6.73725C117.201 7.17588 117.837 7.84258 118.278 8.73738C118.896 8.00049 119.567 7.36887 120.291 6.84252C121.015 6.31617 121.863 6.053 122.834 6.053C123.735 6.053 124.574 6.25477 125.351 6.6583C126.146 7.04429 126.781 7.64082 127.258 8.44788C127.753 9.23741 128 10.2375 128 11.4481V19.4749H125.828L125.801 11.6586C125.801 10.5182 125.501 9.64971 124.901 9.05318C124.318 8.45666 123.506 8.15839 122.464 8.15839C121.704 8.15839 121.042 8.39525 120.477 8.86896C119.912 9.34268 119.373 9.89534 118.861 10.527V19.4749H116.689L116.662 11.6586C116.662 10.5182 116.362 9.64971 115.762 9.05318C115.179 8.45666 114.366 8.15839 113.325 8.15839C112.6 8.15839 111.938 8.36893 111.338 8.79001C110.755 9.21109 110.216 9.71989 109.722 10.3164V19.4749H107.55V6.31617H109.722Z" fill="#000639"/>
</svg>
