<svg width="182" height="37" viewBox="0 0 182 37" fill="none" xmlns="http://www.w3.org/2000/svg">
<path d="M15.6689 13.3653V16.5745H3.3899V24.7296H17.2885V27.9388H0V2.64286H17.2885V5.85204H3.3899V13.3653H15.6689Z" fill="#000639"/>
<path d="M26.5919 9.06122V11.4776C27.1945 10.798 27.9604 10.1687 28.8895 9.5898C29.8437 8.98571 30.9611 8.68367 32.2417 8.68367C33.5977 8.68367 34.8658 9.01088 36.0459 9.66531C37.2261 10.2946 38.1301 11.251 38.7579 12.5347C39.6367 11.4776 40.5909 10.5714 41.6204 9.81633C42.65 9.06122 43.8553 8.68367 45.2363 8.68367C46.517 8.68367 47.7097 8.97313 48.8146 9.55204C49.9445 10.1058 50.8485 10.9616 51.5265 12.1194C52.2296 13.252 52.5811 14.6867 52.5811 16.4235V27.9388H49.4925L49.4549 16.7255C49.4549 15.0895 49.028 13.8435 48.1743 12.9878C47.3456 12.132 46.1905 11.7041 44.709 11.7041C43.6293 11.7041 42.6876 12.0439 41.8841 12.7235C41.0806 13.4031 40.3147 14.1959 39.5865 15.102V27.9388H36.4979L36.4603 16.7255C36.4603 15.0895 36.0334 13.8435 35.1796 12.9878C34.351 12.132 33.1959 11.7041 31.7144 11.7041C30.6849 11.7041 29.7432 12.0061 28.8895 12.6102C28.0608 13.2143 27.295 13.9442 26.5919 14.8V27.9388H23.5033V9.06122H26.5919Z" fill="#000639"/>
<path d="M67.9863 8.68367C69.6185 8.68367 71.0875 9.08639 72.3932 9.89184C73.7241 10.6721 74.7787 11.7796 75.5571 13.2143C76.3607 14.6238 76.7624 16.285 76.7624 18.198C76.7624 20.2619 76.3607 22.0742 75.5571 23.6347C74.7787 25.1701 73.699 26.3656 72.3179 27.2214C70.9619 28.0772 69.4176 28.5051 67.685 28.5051C66.6053 28.5051 65.5004 28.2156 64.3704 27.6367C63.2656 27.0578 62.3114 26.3153 61.5079 25.4092V37H58.4193V9.06122H61.5079V12.2704C62.1607 11.2636 63.0396 10.4204 64.1445 9.74082C65.2744 9.03605 66.5551 8.68367 67.9863 8.68367ZM67.4967 11.7041C66.3667 11.7041 65.3372 11.9935 64.4081 12.5724C63.5041 13.1514 62.7885 13.9568 62.2612 14.9888C61.759 15.9956 61.5079 17.1786 61.5079 18.5378L61.5455 22.1622C62.3491 23.1439 63.1903 23.9493 64.0691 24.5786C64.948 25.1827 65.965 25.4847 67.12 25.4847C68.476 25.4847 69.6311 25.1323 70.5853 24.4276C71.5395 23.7228 72.2677 22.8167 72.7699 21.7092C73.2972 20.5765 73.5608 19.4061 73.5608 18.198C73.5608 16.9646 73.3097 15.8697 72.8075 14.9133C72.3053 13.9316 71.6022 13.1514 70.6983 12.5724C69.7943 11.9935 68.7271 11.7041 67.4967 11.7041Z" fill="#000639"/>
<path d="M90.3597 8.68367C92.2681 8.68367 93.963 9.13673 95.4445 10.0429C96.926 10.949 98.0811 12.1571 98.9098 13.6673C99.7635 15.1776 100.19 16.8262 100.19 18.6133C100.19 20.4003 99.7635 22.049 98.9098 23.5592C98.0811 25.0442 96.926 26.2398 95.4445 27.1459C93.963 28.052 92.2681 28.5051 90.3597 28.5051C88.4513 28.5051 86.7563 28.052 85.2748 27.1459C83.7933 26.2398 82.6257 25.0442 81.7719 23.5592C80.9433 22.049 80.529 20.4003 80.529 18.6133C80.529 16.8262 80.9433 15.1776 81.7719 13.6673C82.6257 12.1571 83.7933 10.949 85.2748 10.0429C86.7563 9.13673 88.4513 8.68367 90.3597 8.68367ZM90.3597 11.7041C89.0288 11.7041 87.8612 12.0313 86.8568 12.6857C85.8524 13.315 85.074 14.1582 84.5215 15.2153C83.9942 16.2473 83.7305 17.3799 83.7305 18.6133C83.7305 19.8214 83.9942 20.9541 84.5215 22.0112C85.074 23.0432 85.8524 23.8864 86.8568 24.5408C87.8612 25.1701 89.0288 25.4847 90.3597 25.4847C91.7156 25.4847 92.8833 25.1701 93.8626 24.5408C94.867 23.8864 95.6329 23.0432 96.1602 22.0112C96.7126 20.9541 96.9888 19.8214 96.9888 18.6133C96.9888 17.3799 96.7126 16.2473 96.1602 15.2153C95.6329 14.1582 94.867 13.315 93.8626 12.6857C92.8833 12.0313 91.7156 11.7041 90.3597 11.7041Z" fill="#000639"/>
<path d="M108.364 9.06122V12.8367C109.092 11.5782 109.971 10.5714 111 9.81633C112.03 9.06122 113.085 8.68367 114.164 8.68367C114.893 8.68367 115.545 8.80952 116.123 9.06122V12.648C115.319 12.1697 114.516 11.9306 113.712 11.9306C112.432 11.9306 111.39 12.3837 110.586 13.2898C109.808 14.1959 109.067 15.2782 108.364 16.5367V27.9388H105.275V9.06122H108.364Z" fill="#000639"/>
<path d="M123.091 0C123.819 0 124.422 0.264286 124.899 0.792857C125.401 1.29626 125.652 1.88776 125.652 2.56735C125.652 3.22177 125.401 3.81327 124.899 4.34184C124.422 4.87041 123.819 5.13469 123.091 5.13469C122.363 5.13469 121.748 4.87041 121.245 4.34184C120.768 3.81327 120.53 3.22177 120.53 2.56735C120.53 1.88776 120.768 1.29626 121.245 0.792857C121.748 0.264286 122.363 0 123.091 0ZM125.012 9.06122V27.9388H121.923V11.9684H118.948V9.06122H125.012Z" fill="#000639"/>
<path d="M147.084 9.06122V20.2367C147.084 21.898 146.732 23.3327 146.029 24.5408C145.326 25.749 144.372 26.6803 143.167 27.3347C141.962 27.9891 140.606 28.3163 139.099 28.3163C137.592 28.3163 136.236 27.9891 135.031 27.3347C133.826 26.6803 132.872 25.749 132.168 24.5408C131.465 23.3327 131.114 21.898 131.114 20.2367V9.06122H134.315V20.2367C134.315 21.8728 134.792 23.1313 135.747 24.0122C136.726 24.868 137.843 25.2959 139.099 25.2959C140.354 25.2959 141.459 24.868 142.413 24.0122C143.393 23.1313 143.882 21.8728 143.882 20.2367V9.06122H147.084Z" fill="#000639"/>
<path d="M156.011 9.06122V11.4776C156.613 10.798 157.379 10.1687 158.308 9.5898C159.263 8.98571 160.38 8.68367 161.661 8.68367C163.017 8.68367 164.285 9.01088 165.465 9.66531C166.645 10.2946 167.549 11.251 168.177 12.5347C169.056 11.4776 170.01 10.5714 171.039 9.81633C172.069 9.06122 173.274 8.68367 174.655 8.68367C175.936 8.68367 177.129 8.97313 178.233 9.55204C179.363 10.1058 180.267 10.9616 180.945 12.1194C181.648 13.252 182 14.6867 182 16.4235V27.9388H178.911L178.874 16.7255C178.874 15.0895 178.447 13.8435 177.593 12.9878C176.764 12.132 175.609 11.7041 174.128 11.7041C173.048 11.7041 172.107 12.0439 171.303 12.7235C170.499 13.4031 169.734 14.1959 169.005 15.102V27.9388H165.917L165.879 16.7255C165.879 15.0895 165.452 13.8435 164.599 12.9878C163.77 12.132 162.615 11.7041 161.133 11.7041C160.104 11.7041 159.162 12.0061 158.308 12.6102C157.48 13.2143 156.714 13.9442 156.011 14.8V27.9388H152.922V9.06122H156.011Z" fill="#000639"/>
</svg>
